PathFileType	4	(X/Y/Z)	D:\TRACE\v60_Jaco2_6-2-23\BothDRS_Motion3_1-platform.trc
DataRate	CameraRate	NumFrames	NumMarkers	Units	OrigDataRate	OrigDataStartFrame	OrigNumFrames
100.00	100.00	      30	5	mm	100.00	1	      7000
Frame#	Time	Left_Front			Right_Front			Left_Aft			Right_Aft			Post			
		X1	Y1	Z1	X2	Y2	Z2	X3	Y3	Z3	X4	Y4	Z4	X5	Y5	Z5	

1	0.000	-814.73932	128.22935	-611.99841	755.80707	125.82695	-588.70416	-745.45227	-74.22779	507.02603	668.73090	-92.35748	608.37097	-21.63389	1462.21606	-684.01514	
2	0.010	-814.72668	128.57074	-611.78174	755.76318	125.83092	-588.72040	-745.45294	-74.21566	507.01837	668.56592	-92.34447	608.30725	-21.61340	1462.18054	-684.02283	
3	0.020	-814.76599	128.58669	-611.70099	755.78857	125.85378	-588.72644	-745.47455	-74.21401	507.06064	668.57928	-92.32607	608.31104	-21.61150	1462.23132	-684.02899	
4	0.030	-814.74268	128.55971	-611.73633	755.77307	125.84058	-588.74103	-745.46802	-74.24510	507.01532	668.58466	-92.33515	608.29620	-21.57951	1462.22766	-684.02423	
5	0.040	-814.81042	128.31013	-611.94830	755.80811	125.85422	-588.73383	-745.44995	-74.22372	507.02286	668.62390	-92.30935	608.32721	-21.59762	1462.22205	-684.01495	
6	0.050	-814.73230	128.55704	-611.69537	755.79755	125.86362	-588.69403	-745.40405	-74.23116	507.04996	668.59467	-92.33880	608.28278	-21.61559	1462.23218	-684.04547	
7	0.060	-814.68268	128.52136	-611.74371	755.81738	125.84307	-588.68628	-745.44055	-74.22883	507.02014	668.58667	-92.33743	608.32983	-21.58211	1462.21582	-684.01349	
8	0.070	-814.73639	128.55345	-611.72961	755.79639	125.85335	-588.72778	-745.42078	-74.22433	507.04703	668.59015	-92.32644	608.33148	-21.55994	1462.23303	-684.03375	
9	0.080	-814.81042	128.34016	-611.89172	755.80768	125.82993	-588.68750	-745.44604	-74.20741	507.05466	668.60913	-92.31263	608.31445	-21.57766	1462.23962	-684.01874	
10	0.090	-814.76917	128.61250	-611.73822	755.79639	125.82014	-588.70648	-745.42468	-74.22832	507.02197	668.61859	-92.30511	608.31042	-21.58833	1462.24036	-684.03912	
11	0.100	-814.82092	128.32999	-611.91461	755.80139	125.82843	-588.70837	-745.44244	-74.21241	507.03372	668.59875	-92.32011	608.31677	-21.57748	1462.22156	-684.01959	
12	0.110	-814.77161	128.59102	-611.74854	755.76025	125.84566	-588.71838	-745.46399	-74.21359	507.01260	668.57410	-92.32932	608.30713	-21.61782	1462.17664	-684.02783	
13	0.120	-814.78857	128.28468	-611.94189	755.78082	125.84333	-588.72437	-745.45160	-74.22164	507.03598	668.55328	-92.32000	608.34204	-21.55553	1462.19153	-684.02081	
14	0.130	-814.76263	128.58365	-611.75641	755.79932	125.83417	-588.72784	-745.45386	-74.21874	507.05960	668.60382	-92.29741	608.33362	-21.57233	1462.19299	-684.02673	
15	0.140	-814.76282	128.65305	-611.80920	755.79999	125.84153	-588.71088	-745.46191	-74.22356	507.02817	668.60876	-92.31541	608.29266	-21.57537	1462.25061	-684.05090	
16	0.150	-814.78174	128.64326	-611.75024	755.80878	125.86564	-588.72083	-745.44904	-74.22703	507.04987	668.60364	-92.31180	608.27686	-21.57716	1462.22913	-684.01819	
17	0.160	-814.79913	128.30234	-611.97083	755.77429	125.84505	-588.72479	-745.44073	-74.22915	507.03806	668.55273	-92.33205	608.31812	-21.62147	1462.26038	-684.05688	
18	0.170	-814.74005	128.23152	-612.01965	755.80505	125.84652	-588.69989	-745.44934	-74.19795	507.02448	668.60260	-92.30438	608.32422	-21.58893	1462.20508	-684.03503	
19	0.180	-814.71588	128.50798	-611.75165	755.79095	125.84102	-588.71429	-745.45923	-74.21589	507.03189	668.58521	-92.32220	608.30469	-21.63927	1462.22473	-684.04010	
20	0.190	-814.73114	128.54236	-611.77557	755.81787	125.86356	-588.69043	-745.44019	-74.23064	507.04321	668.61560	-92.31368	608.29553	-21.62259	1462.19788	-684.02191	
21	0.200	-814.76392	128.26303	-611.99066	755.82269	125.84595	-588.69720	-745.46698	-74.22162	507.04160	668.62592	-92.30648	608.30652	-21.61198	1462.24304	-684.03040	
22	0.210	-814.72284	128.53070	-611.75012	755.79413	125.86343	-588.70105	-745.46265	-74.19016	507.03003	668.57788	-92.31399	608.29517	-21.63722	1462.25623	-684.03845	
23	0.220	-814.73846	128.54710	-611.73297	755.77496	125.83128	-588.71307	-745.43195	-74.22116	507.03592	668.59784	-92.32583	608.32886	-21.60359	1462.21362	-684.02393	
24	0.230	-814.74615	128.56471	-611.75012	755.78375	125.84119	-588.70038	-745.45618	-74.22447	507.04758	668.58069	-92.35027	608.28979	-21.63865	1462.19385	-684.01550	
25	0.240	-814.71906	128.54317	-611.73615	755.79468	125.84099	-588.69745	-745.46558	-74.21123	507.03958	668.58850	-92.31441	608.31775	-21.63731	1462.21069	-684.00549	
26	0.250	-814.73218	128.53363	-611.73633	755.81464	125.87005	-588.70062	-745.43658	-74.21749	507.02155	668.62421	-92.29924	608.32538	-21.60752	1462.23865	-684.03369	
27	0.260	-814.74493	128.58192	-611.76147	755.79010	125.84435	-588.71417	-745.43921	-74.22189	507.01578	668.57819	-92.29095	608.33490	-21.60592	1462.24377	-684.03662	
28	0.270	-814.77356	128.58064	-611.74597	755.83856	125.85414	-588.70135	-745.49261	-74.17670	507.04169	668.57513	-92.30788	608.31335	-21.61300	1462.23413	-684.04016	
29	0.280	-814.73383	128.54604	-611.78552	755.83350	125.84637	-588.68372	-745.44781	-74.20676	507.02118	668.59753	-92.30668	608.34375	-21.61979	1462.22253	-684.00586	
30	0.290	-814.77216	128.59331	-611.75018	755.80011	125.83249	-588.68964	-745.46368	-74.21877	507.04977	668.56555	-92.34386	608.29639	-21.58766	1462.21313	-684.00964	
